<?xml version="1.0" encoding="UTF-8"?>
<svg version="1.1" xmlns="http://www.w3.org/2000/svg" width="512" height="512">
<path d="M0 0 C0.66 -0.0103125 1.32 -0.020625 2 -0.03125 C5.02495539 0.77225378 6.09823222 2.01352419 8 4.5 C8.3491005 7.3896512 8.4681562 9.8859271 8.390625 12.765625 C8.38496521 13.55902283 8.37930542 14.35242065 8.37347412 15.16986084 C8.35113147 17.69719473 8.30094176 20.22309665 8.25 22.75 C8.22993214 24.46612532 8.21168187 26.18227292 8.1953125 27.8984375 C8.15127395 32.0995078 8.08226326 36.29951135 8 40.5 C9.96259766 40.46326172 9.96259766 40.46326172 11.96484375 40.42578125 C16.598469 40.43030716 21.00137964 40.90484973 25.5625 41.6875 C26.3261084 41.81552002 27.0897168 41.94354004 27.87646484 42.07543945 C35.81429212 43.49764032 43.38795588 45.87623002 51 48.5 C51.12076904 47.78972656 51.24153809 47.07945313 51.3659668 46.34765625 C52.51868821 41.17039688 54.7760811 36.38274404 56.8125 31.5 C57.25142578 30.41976562 57.69035156 29.33953125 58.14257812 28.2265625 C58.57634766 27.18242188 59.01011719 26.13828125 59.45703125 25.0625 C59.84866455 24.11503906 60.24029785 23.16757812 60.64379883 22.19140625 C62.12444003 19.25304647 63.79767624 16.94050824 66 14.5 C69.08870998 13.57556215 71.86833267 13.78747386 75 14.5 C77.5625 16.625 77.5625 16.625 79 19.5 C79.45792185 24.45348152 78.30382416 27.88891395 76.375 32.4296875 C76.10864746 33.06488312 75.84229492 33.70007874 75.56787109 34.35452271 C74.72184708 36.36571929 73.86123194 38.37027553 73 40.375 C72.42089675 41.74437838 71.84276151 43.11416656 71.265625 44.484375 C69.85491689 47.82773049 68.43106135 51.1652972 67 54.5 C68.39665894 55.26727417 68.39665894 55.26727417 69.8215332 56.05004883 C78.07995017 60.61228864 85.74913611 65.67822168 93.33544922 71.27880859 C96.2024688 73.3821867 99.10306886 75.4380882 102 77.5 C102.6297876 76.84402832 103.2595752 76.18805664 103.90844727 75.51220703 C106.26708441 73.06799428 108.63684961 70.63572806 111.01489258 68.21044922 C112.03873606 67.16157092 113.05803407 66.10823447 114.07250977 65.05029297 C115.53769624 63.52396714 117.01887343 62.01480609 118.50390625 60.5078125 C119.38892822 59.59660645 120.2739502 58.68540039 121.18579102 57.74658203 C124.41348341 55.16991634 126.96897412 54.2894696 131 53.5 C134.43672398 54.20296627 135.63164695 55.05797634 137.875 57.75 C139.36106788 61.38261038 139.31376581 62.77766353 138 66.5 C133.43913729 72.47873032 127.90028889 77.72569807 122.5625 83 C121.83095703 83.72703125 121.09941406 84.4540625 120.34570312 85.203125 C118.56610176 86.97109499 116.78419082 88.73666378 115 90.5 C115.56376343 91.24008301 115.56376343 91.24008301 116.13891602 91.99511719 C119.54377027 96.49494344 122.8135626 101.05135354 125.9375 105.75 C126.32873047 106.32878906 126.71996094 106.90757813 127.12304688 107.50390625 C131.017779 113.34287864 134.50141039 119.41802102 138 125.5 C138.8470752 125.13648438 139.69415039 124.77296875 140.56689453 124.3984375 C143.72790108 123.04798694 146.89270938 121.70735092 150.06054688 120.37304688 C151.42774188 119.79486696 152.79333476 119.21288261 154.15722656 118.62695312 C156.12410685 117.78277385 158.09644582 116.95268896 160.0703125 116.125 C161.25383301 115.62226562 162.43735352 115.11953125 163.65673828 114.6015625 C168.29075432 113.07471276 171.4762063 112.73810315 175.875 114.9375 C178.56476372 118.1810386 178.59391274 120.18450374 178.6640625 124.28125 C177.68757458 127.54386846 175.73765537 128.53578409 173 130.5 C171.01020284 131.50208498 168.98275746 132.43179073 166.9296875 133.296875 C165.78628906 133.78027344 164.64289063 134.26367188 163.46484375 134.76171875 C162.28019531 135.25285156 161.09554688 135.74398437 159.875 136.25 C158.68261719 136.75660156 157.49023438 137.26320312 156.26171875 137.78515625 C147.40016425 141.5 147.40016425 141.5 144 141.5 C144.32613281 142.45777344 144.65226562 143.41554687 144.98828125 144.40234375 C147.39211809 151.64973243 149.46034606 158.85348416 150.8125 166.375 C150.9360083 167.03878662 151.0595166 167.70257324 151.18676758 168.38647461 C152.09083622 173.76777241 152.11956434 179.05318022 152 184.5 C153.06959961 184.47905273 154.13919922 184.45810547 155.24121094 184.43652344 C159.21438173 184.36405374 163.18749425 184.31817537 167.16113281 184.28027344 C168.87998279 184.26017372 170.59876452 184.23288911 172.31738281 184.19824219 C174.78988489 184.14964966 177.2614821 184.12701565 179.734375 184.109375 C180.88459137 184.07840729 180.88459137 184.07840729 182.05804443 184.04681396 C185.63732968 184.04531296 187.59843968 184.19286873 190.48339844 186.39941406 C192.12430791 188.67217406 192.54328235 189.72992986 192.5 192.5 C192.51546875 193.49 192.51546875 193.49 192.53125 194.5 C191.72774622 197.52495539 190.48647581 198.59823222 188 200.5 C185.1103488 200.8491005 182.6140729 200.9681562 179.734375 200.890625 C178.94097717 200.88496521 178.14757935 200.87930542 177.33013916 200.87347412 C174.80280527 200.85113147 172.27690335 200.80094176 169.75 200.75 C168.03387468 200.72993214 166.31772708 200.71168187 164.6015625 200.6953125 C160.4004922 200.65127395 156.20048865 200.58226326 152 200.5 C152.02682861 201.07540527 152.05365723 201.65081055 152.08129883 202.24365234 C152.26603435 209.45190404 151.16358587 216.08715792 149.6875 223.125 C149.47416016 224.20523438 149.26082031 225.28546875 149.04101562 226.3984375 C147.82393655 232.35667534 146.32111695 237.87758768 144 243.5 C144.71027344 243.62076904 145.42054688 243.74153809 146.15234375 243.8659668 C151.32960312 245.01868821 156.11725596 247.2760811 161 249.3125 C162.62035156 249.97088867 162.62035156 249.97088867 164.2734375 250.64257812 C165.31757813 251.07634766 166.36171875 251.51011719 167.4375 251.95703125 C168.38496094 252.34866455 169.33242188 252.74029785 170.30859375 253.14379883 C173.24695353 254.62444003 175.55949176 256.29767624 178 258.5 C178.92443785 261.58870998 178.71252614 264.36833267 178 267.5 C175.875 270.0625 175.875 270.0625 173 271.5 C168.04651848 271.95792185 164.61108605 270.80382416 160.0703125 268.875 C159.43511688 268.60864746 158.79992126 268.34229492 158.14547729 268.06787109 C156.13428071 267.22184708 154.12972447 266.36123194 152.125 265.5 C150.75562162 264.92089675 149.38583344 264.34276151 148.015625 263.765625 C144.67226951 262.35491689 141.3347028 260.93106135 138 259.5 C137.70754395 259.99927002 137.41508789 260.49854004 137.11376953 261.01293945 C135.78510193 263.2800016 134.45506602 265.54625803 133.125 267.8125 C132.66480469 268.59818359 132.20460938 269.38386719 131.73046875 270.19335938 C131.28574219 270.95068359 130.84101563 271.70800781 130.3828125 272.48828125 C129.97434082 273.18477783 129.56586914 273.88127441 129.14501953 274.59887695 C128.14351876 276.2617099 127.0767497 277.88487545 126 279.5 C127.63195312 279.62955078 127.63195312 279.62955078 129.296875 279.76171875 C142.60209804 280.97073217 153.18134644 284.38081853 164 292.5 C164.81597656 293.1084375 165.63195312 293.716875 166.47265625 294.34375 C179.05406989 305.07781542 183.40980971 319.66929968 185 335.5 C186.28970703 335.62955078 186.28970703 335.62955078 187.60546875 335.76171875 C205.21644235 337.8550624 218.90129434 344.42074258 230 358.3125 C237.18176206 368.63051779 239.76234344 379.17885191 241 391.5 C242.08796875 391.52578125 243.1759375 391.5515625 244.296875 391.578125 C258.87634431 392.07575757 270.61118932 394.8915438 281.6875 404.9375 C282.450625 405.783125 283.21375 406.62875 284 407.5 C284.48082031 407.98855469 284.96164062 408.47710937 285.45703125 408.98046875 C294.01360959 418.10026491 297.57487272 430.46580615 297.24609375 442.8046875 C296.12612474 455.0710148 291.82118895 466.67881105 283 475.5 C274.48934726 482.5599733 264.86046413 488.60305956 253.4863987 488.63701439 C252.58138544 488.64208893 251.67637218 488.64716347 250.74393427 488.65239179 C249.258266 488.65313843 249.258266 488.65313843 247.74258423 488.65390015 C246.68732084 488.6582824 245.63205745 488.66266465 244.54481637 488.6671797 C240.99683542 488.68057002 237.44887932 488.68674719 233.90087891 488.69287109 C231.36145923 488.70077205 228.82204067 488.709041 226.28262329 488.71765137 C218.65197683 488.74161321 211.0213316 488.75680225 203.39065939 488.76971143 C201.23363186 488.77342533 199.07660497 488.77739842 196.91957808 488.7814641 C183.51221642 488.8067082 170.1048537 488.82875193 156.69747353 488.84119225 C153.59274924 488.84412175 150.48802499 488.84708343 147.38330078 488.85009766 C146.61167529 488.85084371 145.8400498 488.85158976 145.04504173 488.85235842 C132.56135494 488.86499632 120.07781109 488.89819877 107.59419103 488.93989949 C94.76383507 488.98240524 81.93355208 489.00589743 69.10312593 489.01111281 C61.90495295 489.01451771 54.70700311 489.02616304 47.50889969 489.05921555 C40.73071216 489.09028943 33.95297996 489.09558465 27.17470932 489.08383179 C24.6940084 489.08361158 22.21328916 489.0918727 19.73265076 489.10948563 C1.03329914 489.23496879 -13.18425428 488.03646446 -27.1484375 474.40234375 C-37.867797 463.10517491 -40.70835126 450.75452118 -40.375 435.6015625 C-39.6759742 422.16528797 -33.22207059 412.29691178 -23.6875 403.25 C-17.72051584 398.14853402 -10.96657274 394.12893995 -3 393.5 C-3.27714844 392.83613281 -3.55429688 392.17226563 -3.83984375 391.48828125 C-4.20207031 390.60527344 -4.56429687 389.72226562 -4.9375 388.8125 C-5.47697266 387.50732422 -5.47697266 387.50732422 -6.02734375 386.17578125 C-10.64921172 373.4610039 -9.02590031 357.79550613 -4 345.5 C-5.90845703 345.37044922 -5.90845703 345.37044922 -7.85546875 345.23828125 C-22.3060743 344.13010598 -37.60508989 342.42889464 -51 336.5 C-51.12076904 337.21027344 -51.24153809 337.92054688 -51.3659668 338.65234375 C-52.51868821 343.82960312 -54.7760811 348.61725596 -56.8125 353.5 C-57.47088867 355.12035156 -57.47088867 355.12035156 -58.14257812 356.7734375 C-58.57634766 357.81757813 -59.01011719 358.86171875 -59.45703125 359.9375 C-59.84866455 360.88496094 -60.24029785 361.83242188 -60.64379883 362.80859375 C-62.12444003 365.74695353 -63.79767624 368.05949176 -66 370.5 C-69.08870998 371.42443785 -71.86833267 371.21252614 -75 370.5 C-77.5625 368.375 -77.5625 368.375 -79 365.5 C-79.45792185 360.54651848 -78.30382416 357.11108605 -76.375 352.5703125 C-76.10864746 351.93511688 -75.84229492 351.29992126 -75.56787109 350.64547729 C-74.72184708 348.63428071 -73.86123194 346.62972447 -73 344.625 C-72.42089675 343.25562162 -71.84276151 341.88583344 -71.265625 340.515625 C-69.85491689 337.17226951 -68.43106135 333.8347028 -67 330.5 C-68.08796875 329.88253906 -69.1759375 329.26507813 -70.296875 328.62890625 C-78.36959692 323.99512886 -86.05344187 319.25981839 -93.38671875 313.5078125 C-96.17562203 311.36506768 -99.0665564 309.43846114 -102 307.5 C-102.6297876 308.15597168 -103.2595752 308.81194336 -103.90844727 309.48779297 C-106.26708441 311.93200572 -108.63684961 314.36427194 -111.01489258 316.78955078 C-112.03873606 317.83842908 -113.05803407 318.89176553 -114.07250977 319.94970703 C-115.53769624 321.47603286 -117.01887343 322.98519391 -118.50390625 324.4921875 C-119.38892822 325.40339355 -120.2739502 326.31459961 -121.18579102 327.25341797 C-124.41348341 329.83008366 -126.96897412 330.7105304 -131 331.5 C-134.43672398 330.79703373 -135.63164695 329.94202366 -137.875 327.25 C-139.36106788 323.61738962 -139.31376581 322.22233647 -138 318.5 C-133.43913729 312.52126968 -127.90028889 307.27430193 -122.5625 302 C-121.83095703 301.27296875 -121.09941406 300.5459375 -120.34570312 299.796875 C-118.56610176 298.02890501 -116.78419082 296.26333622 -115 294.5 C-115.37584229 294.00661133 -115.75168457 293.51322266 -116.13891602 293.00488281 C-119.54377027 288.50505656 -122.8135626 283.94864646 -125.9375 279.25 C-126.5243457 278.38181641 -126.5243457 278.38181641 -127.12304688 277.49609375 C-131.017779 271.65712136 -134.50141039 265.58197898 -138 259.5 C-139.27061279 260.04527344 -139.27061279 260.04527344 -140.56689453 260.6015625 C-143.72790108 261.95201306 -146.89270938 263.29264908 -150.06054688 264.62695312 C-151.42774188 265.20513304 -152.79333476 265.78711739 -154.15722656 266.37304688 C-156.12410685 267.21722615 -158.09644582 268.04731104 -160.0703125 268.875 C-161.84559326 269.62910156 -161.84559326 269.62910156 -163.65673828 270.3984375 C-168.29075432 271.92528724 -171.4762063 272.26189685 -175.875 270.0625 C-178.56476372 266.8189614 -178.59391274 264.81549626 -178.6640625 260.71875 C-177.68757458 257.45613154 -175.73765537 256.46421591 -173 254.5 C-171.01020284 253.49791502 -168.98275746 252.56820927 -166.9296875 251.703125 C-165.78628906 251.21972656 -164.64289063 250.73632812 -163.46484375 250.23828125 C-162.28019531 249.74714844 -161.09554687 249.25601563 -159.875 248.75 C-158.68261719 248.24339844 -157.49023438 247.73679688 -156.26171875 247.21484375 C-147.40016425 243.5 -147.40016425 243.5 -144 243.5 C-144.32613281 242.54222656 -144.65226562 241.58445313 -144.98828125 240.59765625 C-147.39211809 233.35026757 -149.46034606 226.14651584 -150.8125 218.625 C-150.9360083 217.96121338 -151.0595166 217.29742676 -151.18676758 216.61352539 C-152.09083622 211.23222759 -152.11956434 205.94681978 -152 200.5 C-153.06959961 200.52094727 -154.13919922 200.54189453 -155.24121094 200.56347656 C-159.21438173 200.63594626 -163.18749425 200.68182463 -167.16113281 200.71972656 C-168.87998279 200.73982628 -170.59876452 200.76711089 -172.31738281 200.80175781 C-174.78988489 200.85035034 -177.2614821 200.87298435 -179.734375 200.890625 C-180.88459137 200.92159271 -180.88459137 200.92159271 -182.05804443 200.95318604 C-185.63732968 200.95468704 -187.59843968 200.80713127 -190.48339844 198.60058594 C-192.12430791 196.32782594 -192.54328235 195.27007014 -192.5 192.5 C-192.51546875 191.51 -192.51546875 191.51 -192.53125 190.5 C-191.72774622 187.47504461 -190.48647581 186.40176778 -188 184.5 C-185.1103488 184.1508995 -182.6140729 184.0318438 -179.734375 184.109375 C-178.94097717 184.11503479 -178.14757935 184.12069458 -177.33013916 184.12652588 C-174.80280527 184.14886853 -172.27690335 184.19905824 -169.75 184.25 C-168.03387468 184.27006786 -166.31772708 184.28831813 -164.6015625 184.3046875 C-160.4004922 184.34872605 -156.20048865 184.41773674 -152 184.5 C-152.02066528 183.55858154 -152.02066528 183.55858154 -152.04174805 182.59814453 C-152.11126717 177.05229588 -151.82660643 171.82524326 -150.8125 166.375 C-150.68447998 165.66287354 -150.55645996 164.95074707 -150.42456055 164.21704102 C-148.93873389 156.44443316 -146.54720859 148.98053749 -144 141.5 C-144.71027344 141.37923096 -145.42054688 141.25846191 -146.15234375 141.1340332 C-151.32960312 139.98131179 -156.11725596 137.7239189 -161 135.6875 C-162.08023438 135.24857422 -163.16046875 134.80964844 -164.2734375 134.35742188 C-165.31757813 133.92365234 -166.36171875 133.48988281 -167.4375 133.04296875 C-168.85869141 132.4555188 -168.85869141 132.4555188 -170.30859375 131.85620117 C-173.24695353 130.37555997 -175.55949176 128.70232376 -178 126.5 C-178.92443785 123.41129002 -178.71252614 120.63166733 -178 117.5 C-175.875 114.9375 -175.875 114.9375 -173 113.5 C-168.04651848 113.04207815 -164.61108605 114.19617584 -160.0703125 116.125 C-159.43511688 116.39135254 -158.79992126 116.65770508 -158.14547729 116.93212891 C-156.13428071 117.77815292 -154.12972447 118.63876806 -152.125 119.5 C-150.75562162 120.07910325 -149.38583344 120.65723849 -148.015625 121.234375 C-144.67226951 122.64508311 -141.3347028 124.06893865 -138 125.5 C-137.48848389 124.56889404 -136.97696777 123.63778809 -136.44995117 122.6784668 C-131.88771136 114.42004983 -126.82177832 106.75086389 -121.22119141 99.16455078 C-119.1178133 96.2975312 -117.0619118 93.39693114 -115 90.5 C-115.98395752 89.53960815 -115.98395752 89.53960815 -116.98779297 88.55981445 C-119.42783033 86.17103474 -121.86086766 83.77554596 -124.28955078 81.37524414 C-125.34022889 80.3396127 -126.39358908 79.30669475 -127.44970703 78.27661133 C-128.97108063 76.79180232 -130.48240451 75.29736339 -131.9921875 73.80078125 C-132.90339355 72.90528564 -133.81459961 72.00979004 -134.75341797 71.0871582 C-137.82705883 67.54756114 -139.09416482 65.06941373 -138.8125 60.375 C-137.95803494 57.35150824 -137.60319541 56.20554182 -135 54.5 C-131.40696312 53.3821663 -129.62800269 53.24081159 -126.12451172 54.68676758 C-122.81278378 56.60864626 -120.49880155 58.65862806 -117.8203125 61.38671875 C-116.8921875 62.32451172 -115.9640625 63.26230469 -115.0078125 64.22851562 C-114.04670729 65.21468033 -113.08577185 66.20101052 -112.125 67.1875 C-111.14132718 68.18623895 -110.1569583 69.18429284 -109.171875 70.18164062 C-106.77432409 72.61444964 -104.38407154 75.05399215 -102 77.5 C-101.50661133 77.12415771 -101.01322266 76.74831543 -100.50488281 76.36108398 C-96.00505656 72.95622973 -91.44864646 69.6864374 -86.75 66.5625 C-85.88181641 65.9756543 -85.88181641 65.9756543 -84.99609375 65.37695312 C-79.15712136 61.482221 -73.08197898 57.99858961 -67 54.5 C-67.36351562 53.6529248 -67.72703125 52.80584961 -68.1015625 51.93310547 C-69.45201306 48.77209892 -70.79264908 45.60729062 -72.12695312 42.43945312 C-72.70513304 41.07225812 -73.28711739 39.70666524 -73.87304688 38.34277344 C-74.71722615 36.37589315 -75.54731104 34.40355418 -76.375 32.4296875 C-76.87773438 31.24616699 -77.38046875 30.06264648 -77.8984375 28.84326172 C-79.42528724 24.20924568 -79.76189685 21.0237937 -77.5625 16.625 C-74.3189614 13.93523628 -72.31549626 13.90608726 -68.21875 13.8359375 C-64.95613154 14.81242542 -63.96421591 16.76234463 -62 19.5 C-60.99791502 21.48979716 -60.06820927 23.51724254 -59.203125 25.5703125 C-58.71972656 26.71371094 -58.23632812 27.85710938 -57.73828125 29.03515625 C-57.24714844 30.21980469 -56.75601563 31.40445313 -56.25 32.625 C-55.74339844 33.81738281 -55.23679688 35.00976562 -54.71484375 36.23828125 C-51 45.09983575 -51 45.09983575 -51 48.5 C-49.58074219 48.01080078 -49.58074219 48.01080078 -48.1328125 47.51171875 C-40.68742965 45.02230283 -33.31180854 42.98668245 -25.5625 41.6875 C-24.84271973 41.5639917 -24.12293945 41.4404834 -23.38134766 41.31323242 C-18.21276119 40.50478815 -13.22964658 40.40210514 -8 40.5 C-8.02094727 39.43040039 -8.04189453 38.36080078 -8.06347656 37.25878906 C-8.13594626 33.28561827 -8.18182463 29.31250575 -8.21972656 25.33886719 C-8.23982628 23.62001721 -8.26711089 21.90123548 -8.30175781 20.18261719 C-8.35035034 17.71011511 -8.37298435 15.2385179 -8.390625 12.765625 C-8.41127014 11.99881409 -8.43191528 11.23200317 -8.45318604 10.44195557 C-8.45468704 6.86267032 -8.30713127 4.90156032 -6.10058594 2.01660156 C-3.82782594 0.37569209 -2.77007014 -0.04328235 0 0 Z " fill="#FEE143" transform="translate(200,7.5)"/>
<path d="M0 0 C12.65251175 11.70965631 17.69580618 25.65824963 19.375 42.375 C20.23480469 42.46136719 21.09460938 42.54773438 21.98046875 42.63671875 C39.59144235 44.7300624 53.27629434 51.29574258 64.375 65.1875 C71.55676206 75.50551779 74.13734344 86.05385191 75.375 98.375 C76.46296875 98.40078125 77.5509375 98.4265625 78.671875 98.453125 C93.25134431 98.95075757 104.98618932 101.7665438 116.0625 111.8125 C116.825625 112.658125 117.58875 113.50375 118.375 114.375 C119.09623047 115.10783203 119.09623047 115.10783203 119.83203125 115.85546875 C128.38860959 124.97526491 131.94987272 137.34080615 131.62109375 149.6796875 C130.50112474 161.9460148 126.19618895 173.55381105 117.375 182.375 C108.86434726 189.4349733 99.23546413 195.47805956 87.8613987 195.51201439 C86.50387881 195.5196262 86.50387881 195.5196262 85.11893427 195.52739179 C84.12848876 195.52788955 83.13804324 195.52838731 82.11758423 195.52890015 C81.06232084 195.5332824 80.00705745 195.53766465 78.91981637 195.5421797 C75.37183542 195.55557002 71.82387932 195.56174719 68.27587891 195.56787109 C65.73645923 195.57577205 63.19704067 195.584041 60.65762329 195.59265137 C53.02697683 195.61661321 45.3963316 195.63180225 37.76565939 195.64471143 C35.60863186 195.64842533 33.45160497 195.65239842 31.29457808 195.6564641 C17.88721642 195.6817082 4.4798537 195.70375193 -8.92752647 195.71619225 C-12.03225076 195.71912175 -15.13697501 195.72208343 -18.24169922 195.72509766 C-19.01332471 195.72584371 -19.7849502 195.72658976 -20.57995827 195.72735842 C-33.06364506 195.73999632 -45.54718891 195.77319877 -58.03080897 195.81489949 C-70.86116493 195.85740524 -83.69144792 195.88089743 -96.52187407 195.88611281 C-103.72004705 195.88951771 -110.91799689 195.90116304 -118.11610031 195.93421555 C-124.89428784 195.96528943 -131.67202004 195.97058465 -138.45029068 195.95883179 C-140.9309916 195.95861158 -143.41171084 195.9668727 -145.89234924 195.98448563 C-164.59170086 196.10996879 -178.80925428 194.91146446 -192.7734375 181.27734375 C-203.492797 169.98017491 -206.33335126 157.62952118 -206 142.4765625 C-205.3009742 129.04028797 -198.84707059 119.17191178 -189.3125 110.125 C-183.34551584 105.02353402 -176.59157274 101.00393995 -168.625 100.375 C-168.90214844 99.71113281 -169.17929688 99.04726563 -169.46484375 98.36328125 C-170.00818359 97.03876953 -170.00818359 97.03876953 -170.5625 95.6875 C-171.10197266 94.38232422 -171.10197266 94.38232422 -171.65234375 93.05078125 C-176.13241864 80.72607724 -175.03607971 64.13338729 -169.625 52.375 C-161.35157123 37.05012589 -149.44430855 26.22992376 -132.69189453 20.74169922 C-127.95090584 19.44427531 -123.40521912 18.9896696 -118.5 19 C-117.40619019 19.0002417 -117.40619019 19.0002417 -116.2902832 19.00048828 C-107.65157298 19.17879952 -99.26986892 21.26565158 -91.625 25.375 C-91.1403125 24.39660156 -90.655625 23.41820312 -90.15625 22.41015625 C-82.13841251 6.57664559 -71.79067463 -4.57208994 -54.625 -10.625 C-35.26051713 -15.74618555 -15.86744949 -12.37369914 0 0 Z " fill="#E0F8F8" transform="translate(365.625,300.625)"/>
<path d="M0 0 C3.60850335 3.27728807 6.42033408 7.13136128 9.1875 11.125 C5.67801468 11.125 3.75694367 10.17800712 0.5625 8.75 C-12.93160349 3.05213094 -26.82843942 2.10280565 -40.8125 7.125 C-58.0664168 14.41459148 -67.64522037 24.75177841 -74.8125 42.125 C-76.34970703 41.60099609 -76.34970703 41.60099609 -77.91796875 41.06640625 C-79.27859137 40.60660964 -80.63927151 40.1469832 -82 39.6875 C-82.67353516 39.45740234 -83.34707031 39.22730469 -84.04101562 38.99023438 C-99.18055306 33.89448763 -113.77674375 35.43082566 -128.0625 42.375 C-142.83806358 49.96164133 -150.43209313 61.8697063 -155.5625 77.39453125 C-159.14301824 90.79660995 -156.06668716 103.36243852 -151.8125 116.125 C-152.85148437 116.52589844 -153.89046875 116.92679688 -154.9609375 117.33984375 C-168.5687388 122.79930016 -178.62025407 130.10608581 -185.02734375 143.703125 C-190.56074618 156.85726316 -189.93700613 170.14489584 -184.9453125 183.43359375 C-184.27670785 185.01595809 -183.55241634 186.5746991 -182.8125 188.125 C-190.65382453 185.50202173 -196.75972814 178.4162655 -200.75 171.30859375 C-207.11981289 158.21769153 -208.30501873 143.35896452 -203.75 129.4375 C-198.6120078 117.16100884 -189.17341542 107.62654492 -177.12109375 102.0234375 C-174.37320545 100.95403935 -171.75237681 100.35709554 -168.8125 100.125 C-169.08964844 99.46113281 -169.36679688 98.79726563 -169.65234375 98.11328125 C-170.19568359 96.78876953 -170.19568359 96.78876953 -170.75 95.4375 C-171.28947266 94.13232422 -171.28947266 94.13232422 -171.83984375 92.80078125 C-176.31991864 80.47607724 -175.22357971 63.88338729 -169.8125 52.125 C-161.53907123 36.80012589 -149.63180855 25.97992376 -132.87939453 20.49169922 C-128.13840584 19.19427531 -123.59271912 18.7396696 -118.6875 18.75 C-117.59369019 18.7502417 -117.59369019 18.7502417 -116.4777832 18.75048828 C-107.83907298 18.92879952 -99.45736892 21.01565158 -91.8125 25.125 C-91.3278125 24.14660156 -90.843125 23.16820312 -90.34375 22.16015625 C-82.32591251 6.32664559 -71.97817463 -4.82208994 -54.8125 -10.875 C-35.41766183 -16.0042134 -15.73886807 -12.67374934 0 0 Z " fill="#F1FCFC" transform="translate(365.8125,300.875)"/>
<path d="M0 0 C5.54772645 3.80646925 10.10735833 9.01188853 12.140625 15.46875 C13.23458897 23.86428743 11.76689104 30.75001393 6.59765625 37.4765625 C1.92192243 42.59098073 -2.67304285 44.97912051 -9.53125 45.78125 C-15.84071442 46.06012136 -20.77724736 45.35021204 -25.859375 41.46875 C-32.49016305 35.2619555 -35.80716904 30.24098346 -36.234375 21.09375 C-36.06149574 14.36965668 -34.40452533 10.14210753 -29.765625 5.26953125 C-21.0360648 -2.83441047 -11.14510397 -5.61264228 0 0 Z " fill="#FFF178" transform="translate(147.859375,138.53125)"/>
<path d="M0 0 C2.80264702 1.18913123 4.57612584 2.99757389 6.734375 5.12792969 C7.54519531 5.9078125 8.35601562 6.68769531 9.19140625 7.49121094 C10.921875 9.81542969 10.921875 9.81542969 10.80786133 11.65356445 C8.9245266 16.24902573 4.72733515 19.52727416 1.25878906 22.97949219 C-0.1915873 24.42889969 -1.61935684 25.89823555 -3.046875 27.37011719 C-4.42746094 28.75457031 -4.42746094 28.75457031 -5.8359375 30.16699219 C-6.6727002 31.01084473 -7.50946289 31.85469727 -8.37158203 32.72412109 C-11.54304987 35.17467075 -14.1688211 36.02717612 -18.078125 36.81542969 C-21.51484898 36.11246342 -22.70977195 35.25745335 -24.953125 32.56542969 C-26.43919288 28.93281931 -26.39189081 27.53776616 -25.078125 23.81542969 C-20.53066021 17.90036183 -15.10580441 12.5758405 -9.890625 7.25292969 C-9.19259766 6.51751953 -8.49457031 5.78210938 -7.77539062 5.02441406 C-7.09798828 4.33541016 -6.42058594 3.64640625 -5.72265625 2.93652344 C-5.11784424 2.31189209 -4.51303223 1.68726074 -3.88989258 1.04370117 C-2.078125 -0.18457031 -2.078125 -0.18457031 0 0 Z " fill="#F4CF30" transform="translate(87.078125,302.1845703125)"/>
<path d="M0 0 C0.89138672 0.88574707 1.78277344 1.77149414 2.70117188 2.68408203 C3.1819519 3.16007843 3.66273193 3.63607483 4.15808105 4.12649536 C5.16231739 5.12735202 6.16035921 6.13445978 7.15234375 7.14746094 C8.67650204 8.69859114 10.22578892 10.221002 11.77929688 11.74267578 C12.75486396 12.72154384 13.72888054 13.70196016 14.70117188 14.68408203 C15.58353516 15.57208496 16.46589844 16.46008789 17.375 17.375 C19.16992188 19.81689453 19.16992188 19.81689453 19.0390625 22.02832031 C18.02640219 24.1122387 16.97768837 25.37068133 15.16992188 26.81689453 C14.50992188 26.81689453 13.84992188 26.81689453 13.16992188 26.81689453 C12.73679687 27.74501953 12.73679687 27.74501953 12.29492188 28.69189453 C11.16992188 30.81689453 11.16992188 30.81689453 9.16992188 32.81689453 C5.11142184 32.60977258 3.01597966 30.05035144 0.25585938 27.30126953 C-0.6696875 26.37958984 -1.59523438 25.45791016 -2.54882812 24.50830078 C-3.02578125 24.02506348 -3.50273438 23.54182617 -3.99414062 23.04394531 C-5.44673697 21.57532768 -6.9145794 20.12334747 -8.38476562 18.67236328 C-9.30773437 17.74552734 -10.23070313 16.81869141 -11.18164062 15.86376953 C-12.02549316 15.0165332 -12.8693457 14.16929688 -13.73876953 13.29638672 C-16.6891169 9.79840308 -17.91762625 7.27602992 -17.64257812 2.69189453 C-16.80133009 -0.28482928 -16.32786895 -1.42540082 -13.83007812 -3.18310547 C-8.9603068 -5.44407073 -3.95979189 -3.05455996 0 0 Z " fill="#F4CF30" transform="translate(78.830078125,65.18310546875)"/>
<path d="M0 0 C2.39363227 2.69283631 2.96559581 4.22590565 3.125 7.8125 C0.39863012 15.53721465 -7.53388324 21.79209491 -13.1875 27.5625 C-13.88552734 28.29791016 -14.58355469 29.03332031 -15.30273438 29.79101562 C-15.98013672 30.48001953 -16.65753906 31.16902344 -17.35546875 31.87890625 C-17.96028076 32.5035376 -18.56509277 33.12816895 -19.18823242 33.77172852 C-21 35 -21 35 -23.0715332 34.83959961 C-26.04085983 33.54683923 -27.81270914 31.35133767 -30 29 C-30.78375 28.319375 -31.5675 27.63875 -32.375 26.9375 C-34 25 -34 25 -33.88378906 23.18603516 C-32.65751167 20.15286173 -30.79016876 18.40098971 -28.484375 16.0859375 C-27.56269531 15.16039063 -26.64101563 14.23484375 -25.69140625 13.28125 C-25.20816895 12.80429688 -24.72493164 12.32734375 -24.22705078 11.8359375 C-22.75843315 10.38334115 -21.30645294 8.91549872 -19.85546875 7.4453125 C-18.92863281 6.52234375 -18.00179688 5.599375 -17.046875 4.6484375 C-16.19963867 3.80458496 -15.35240234 2.96073242 -14.47949219 2.09130859 C-9.43962378 -2.15952961 -6.11533484 -2.60467965 0 0 Z " fill="#F3CF30" transform="translate(336,63)"/>
<path d="M0 0 C7.425 2.97 7.425 2.97 15 6 C13.90088513 12.59468923 11.76078868 17.9403554 9.1875 24.0625 C8.74857422 25.13822266 8.30964844 26.21394531 7.85742188 27.32226562 C7.42365234 28.36189453 6.98988281 29.40152344 6.54296875 30.47265625 C6.15133545 31.41375244 5.75970215 32.35484863 5.35620117 33.32446289 C3.87240473 36.25172216 2.19551455 38.56460064 0 41 C-3.08870998 41.92443785 -5.86833267 41.71252614 -9 41 C-11.5625 38.875 -11.5625 38.875 -13 36 C-13.45170246 31.06719883 -12.31922928 27.63289384 -10.41015625 23.10546875 C-10.14617538 22.47264481 -9.88219452 21.83982086 -9.61021423 21.18782043 C-8.77085027 19.1833916 -7.91665318 17.18566426 -7.0625 15.1875 C-6.49191799 13.82655745 -5.92224712 12.46523253 -5.35351562 11.10351562 C-1.18397036 1.18397036 -1.18397036 1.18397036 0 0 Z " fill="#F4CF30" transform="translate(134,337)"/>
<path d="M0 0 C1.03271642 2.09836004 2.05083717 4.20390891 3.0625 6.3125 C3.63097656 7.48425781 4.19945312 8.65601563 4.78515625 9.86328125 C6 13 6 13 5 16 C2.31958008 17.44213867 2.31958008 17.44213867 -1.23046875 18.91796875 C-1.85850906 19.18007645 -2.48654938 19.44218414 -3.13362122 19.7122345 C-4.46550756 20.26466727 -5.79971211 20.81153869 -7.13598633 21.35327148 C-9.16864531 22.17983292 -11.19079286 23.02883941 -13.21289062 23.88085938 C-14.50984638 24.41544817 -15.80735641 24.94869459 -17.10546875 25.48046875 C-18.28262451 25.96410889 -19.45978027 26.44774902 -20.67260742 26.94604492 C-25.29799009 28.41113972 -28.49885709 28.75057145 -32.875 26.5625 C-35.56476372 23.3189614 -35.59391274 21.31549626 -35.6640625 17.21875 C-34.6878567 13.95707416 -32.73597671 12.96453257 -30 11 C-28.02190556 9.99834015 -26.0062176 9.06855719 -23.96484375 8.203125 C-22.82595703 7.71972656 -21.68707031 7.23632812 -20.51367188 6.73828125 C-19.33353516 6.24714844 -18.15339844 5.75601562 -16.9375 5.25 C-15.75349609 4.74339844 -14.56949219 4.23679688 -13.34960938 3.71484375 C-4.51308752 0 -4.51308752 0 0 0 Z " fill="#F4CF30" transform="translate(57,251)"/>
<path d="M0 0 C6.50850333 0.90010577 12.04002097 3.28110322 18.0625 5.8125 C19.13822266 6.25142578 20.21394531 6.69035156 21.32226562 7.14257812 C22.36189453 7.57634766 23.40152344 8.01011719 24.47265625 8.45703125 C25.41375244 8.84866455 26.35484863 9.24029785 27.32446289 9.64379883 C30.25172216 11.12759527 32.56460064 12.80448545 35 15 C35.92443785 18.08870998 35.71252614 20.86833267 35 24 C32.875 26.5625 32.875 26.5625 30 28 C25.04651848 28.45792185 21.61108605 27.30382416 17.0703125 25.375 C16.43511688 25.10864746 15.79992126 24.84229492 15.14547729 24.56787109 C13.13428071 23.72184708 11.12972447 22.86123194 9.125 22 C7.75562162 21.42089675 6.38583344 20.84276151 5.015625 20.265625 C1.67226951 18.85491689 -1.6652972 17.43106135 -5 16 C-5 11.75719508 -4.17157221 9.59461608 -2.5 5.75 C-2.0359375 4.67234375 -1.571875 3.5946875 -1.09375 2.484375 C-0.7328125 1.66453125 -0.371875 0.8446875 0 0 Z " fill="#F4CF31" transform="translate(343,251)"/>
<path d="M0 0 C2.68976372 3.2435386 2.71891274 5.24700374 2.7890625 9.34375 C1.8128567 12.60542584 -0.13902329 13.59796743 -2.875 15.5625 C-4.85309444 16.56415985 -6.8687824 17.49394281 -8.91015625 18.359375 C-10.04904297 18.84277344 -11.18792969 19.32617188 -12.36132812 19.82421875 C-13.54146484 20.31535156 -14.72160156 20.80648437 -15.9375 21.3125 C-17.12150391 21.81910156 -18.30550781 22.32570312 -19.52539062 22.84765625 C-28.36191248 26.5625 -28.36191248 26.5625 -32.875 26.5625 C-33.90771642 24.46413996 -34.92583717 22.35859109 -35.9375 20.25 C-36.50597656 19.07824219 -37.07445312 17.90648437 -37.66015625 16.69921875 C-38.875 13.5625 -38.875 13.5625 -37.875 10.5625 C-35.19458008 9.12036133 -35.19458008 9.12036133 -31.64453125 7.64453125 C-31.01649094 7.38242355 -30.38845062 7.12031586 -29.74137878 6.8502655 C-28.40949244 6.29783273 -27.07528789 5.75096131 -25.73901367 5.20922852 C-23.70635469 4.38266708 -21.68420714 3.53366059 -19.66210938 2.68164062 C-18.36515362 2.14705183 -17.06764359 1.61380541 -15.76953125 1.08203125 C-14.59237549 0.59839111 -13.41521973 0.11475098 -12.20239258 -0.38354492 C-7.57700991 -1.84863972 -4.37614291 -2.18807145 0 0 Z " fill="#F4CF31" transform="translate(375.875,122.4375)"/>
<path d="M0 0 C3.26167584 0.9762058 4.25421743 2.92808579 6.21875 5.6640625 C7.22040985 7.64215694 8.15019281 9.6578449 9.015625 11.69921875 C9.49902344 12.83810547 9.98242188 13.97699219 10.48046875 15.15039062 C10.97160156 16.33052734 11.46273437 17.51066406 11.96875 18.7265625 C12.47535156 19.91056641 12.98195312 21.09457031 13.50390625 22.31445312 C17.21875 31.15097498 17.21875 31.15097498 17.21875 35.6640625 C12.26875 37.6440625 7.31875 39.6240625 2.21875 41.6640625 C-1.00664001 35.40562226 -3.83683199 29.04252747 -6.53125 22.5390625 C-6.94246094 21.57613281 -7.35367188 20.61320312 -7.77734375 19.62109375 C-11.49056123 10.65262496 -11.49056123 10.65262496 -10.78125 5.6640625 C-8.17655749 0.45467747 -5.38764549 0.0922542 0 0 Z " fill="#F4CF30" transform="translate(131.78125,21.3359375)"/>
<path d="M0 0 C1.77528076 0.75410156 1.77528076 0.75410156 3.58642578 1.5234375 C4.53921921 1.92296631 4.53921921 1.92296631 5.51126099 2.33056641 C7.52245757 3.17659042 9.52701381 4.03720556 11.53173828 4.8984375 C12.90111666 5.47754075 14.27090484 6.05567599 15.64111328 6.6328125 C18.98446877 8.04352061 22.32203548 9.46737615 25.65673828 10.8984375 C25.08541085 15.23563527 24.4824431 18.87679836 22.59423828 22.8359375 C22.23201172 23.60808594 21.86978516 24.38023437 21.49658203 25.17578125 C21.21943359 25.74425781 20.94228516 26.31273437 20.65673828 26.8984375 C14.14823495 25.99833173 8.61671731 23.61733428 2.59423828 21.0859375 C1.51851562 20.64701172 0.44279297 20.20808594 -0.66552734 19.75585938 C-1.70515625 19.32208984 -2.74478516 18.88832031 -3.81591797 18.44140625 C-4.75701416 18.04977295 -5.69811035 17.65813965 -6.66772461 17.25463867 C-9.59498388 15.77084223 -11.90786236 14.09395205 -14.34326172 11.8984375 C-15.26769956 8.80972752 -15.05578786 6.03010483 -14.34326172 2.8984375 C-10.19754157 -2.10081327 -5.88985463 -1.94063269 0 0 Z " fill="#F4CF30" transform="translate(36.34326171875,122.1015625)"/>
<path d="M0 0 C6.10656112 0.1045644 6.10656112 0.1045644 9.34375 2.7890625 C11.53459611 7.17075472 11.19869524 10.36571443 9.71142578 14.99145508 C9.2214209 16.16861084 8.73141602 17.3457666 8.2265625 18.55859375 C7.96495331 19.19141769 7.70334412 19.82424164 7.43380737 20.47624207 C6.88233541 21.80358361 6.32569695 23.12878929 5.76416016 24.4519043 C4.90360687 26.48280025 4.06206295 28.52083269 3.22265625 30.56054688 C-0.93737831 40.52337666 -0.93737831 40.52337666 -3.21875 41.6640625 C-5.65432572 40.75583223 -7.98070517 39.79578179 -10.34375 38.7265625 C-11.00246094 38.43587891 -11.66117187 38.14519531 -12.33984375 37.84570312 C-13.96924505 37.12546052 -15.59441132 36.39565107 -17.21875 35.6640625 C-16.31864423 29.15555917 -13.93764678 23.62404153 -11.40625 17.6015625 C-10.96732422 16.52583984 -10.52839844 15.45011719 -10.07617188 14.34179688 C-9.42551758 12.78235352 -9.42551758 12.78235352 -8.76171875 11.19140625 C-8.37008545 10.25031006 -7.97845215 9.30921387 -7.57495117 8.33959961 C-3.94640579 1.18114258 -3.94640579 1.18114258 0 0 Z " fill="#F4CF30" transform="translate(268.21875,21.3359375)"/>
<path d="M0 0 C5.05462228 -0.09190222 10.10634023 -0.17151221 15.16113281 -0.21972656 C16.87998279 -0.23982628 18.59876452 -0.26711089 20.31738281 -0.30175781 C22.78988489 -0.35035034 25.2614821 -0.37298435 27.734375 -0.390625 C28.88459137 -0.42159271 28.88459137 -0.42159271 30.05804443 -0.45318604 C33.63732968 -0.45468704 35.59843968 -0.30713127 38.48339844 1.89941406 C40.12430791 4.17217406 40.54328235 5.22992986 40.5 8 C40.5103125 8.66 40.520625 9.32 40.53125 10 C39.72774622 13.02495539 38.48647581 14.09823222 36 16 C33.1103488 16.3491005 30.6140729 16.4681562 27.734375 16.390625 C26.94097717 16.38496521 26.14757935 16.37930542 25.33013916 16.37347412 C22.80280527 16.35113147 20.27690335 16.30094176 17.75 16.25 C16.03387468 16.22993214 14.31772708 16.21168187 12.6015625 16.1953125 C8.40004987 16.15467892 4.20162233 16.07639313 0 16 C0 10.72 0 5.44 0 0 Z " fill="#F4CF30" transform="translate(352,192)"/>
<path d="M0 0 C0.79339783 0.00565979 1.58679565 0.01131958 2.40423584 0.01715088 C4.93156973 0.03949353 7.45747165 0.08968324 9.984375 0.140625 C11.70050032 0.16069286 13.41664792 0.17894313 15.1328125 0.1953125 C19.33432513 0.23594608 23.53275267 0.31423187 27.734375 0.390625 C27.734375 5.670625 27.734375 10.950625 27.734375 16.390625 C22.67975272 16.48252722 17.62803477 16.56213721 12.57324219 16.61035156 C10.85439221 16.63045128 9.13561048 16.65773589 7.41699219 16.69238281 C4.94449011 16.74097534 2.4728929 16.76360935 0 16.78125 C-1.15021637 16.81221771 -1.15021637 16.81221771 -2.32366943 16.84381104 C-5.90295468 16.84531204 -7.86406468 16.69775627 -10.74902344 14.49121094 C-12.38993291 12.21845094 -12.80890735 11.16069514 -12.765625 8.390625 C-12.78109375 7.400625 -12.78109375 7.400625 -12.796875 6.390625 C-11.06052671 -0.14621564 -5.77887221 -0.15558677 0 0 Z " fill="#F4CF30" transform="translate(20.265625,191.609375)"/>
<path d="M0 0 C0.66 -0.0103125 1.32 -0.020625 2 -0.03125 C5.02495539 0.77225378 6.09823222 2.01352419 8 4.5 C8.3491005 7.3896512 8.4681562 9.8859271 8.390625 12.765625 C8.38496521 13.55902283 8.37930542 14.35242065 8.37347412 15.16986084 C8.35113147 17.69719473 8.30094176 20.22309665 8.25 22.75 C8.22993214 24.46612532 8.21168187 26.18227292 8.1953125 27.8984375 C8.15467892 32.09995013 8.07639313 36.29837767 8 40.5 C2.72 40.5 -2.56 40.5 -8 40.5 C-8.09190222 35.44537772 -8.17151221 30.39365977 -8.21972656 25.33886719 C-8.23982628 23.62001721 -8.26711089 21.90123548 -8.30175781 20.18261719 C-8.35035034 17.71011511 -8.37298435 15.2385179 -8.390625 12.765625 C-8.41127014 11.99881409 -8.43191528 11.23200317 -8.45318604 10.44195557 C-8.45468704 6.86267032 -8.30713127 4.90156032 -6.10058594 2.01660156 C-3.82782594 0.37569209 -2.77007014 -0.04328235 0 0 Z " fill="#F4CF30" transform="translate(200,7.5)"/>
</svg>
